<?xml version="1.0" standalone="no"?>
<!DOCTYPE svg PUBLIC "-//W3C//DTD SVG 20010904//EN"
 "http://www.w3.org/TR/2001/REC-SVG-20010904/DTD/svg10.dtd">
<svg version="1.0" xmlns="http://www.w3.org/2000/svg"
 width="80.000000pt" height="80.000000pt" viewBox="0 0 80.000000 80.000000"
 preserveAspectRatio="xMidYMid meet">

<g transform="translate(0.000000,80.000000) scale(0.100000,-0.100000)"
fill="#000000" stroke="none">
<path d="M528 714 c-12 -12 -10 -634 2 -634 6 0 10 39 10 97 0 113 13 113 29
-1 12 -82 17 -99 30 -92 4 3 0 55 -9 115 -15 100 -15 118 -1 215 13 92 12 130
-4 115 -2 -3 -9 -38 -15 -79 -6 -41 -14 -82 -18 -90 -4 -8 -9 70 -12 173 -3
104 -8 185 -12 181z"/>
<path d="M22 390 c2 -192 7 -300 13 -300 6 0 12 82 15 217 l5 218 24 -195 c29
-242 30 -247 47 -247 12 0 14 49 14 304 0 195 -4 303 -10 303 -6 0 -10 -81
-10 -222 0 -122 -2 -219 -4 -217 -4 4 -56 403 -56 429 0 5 -9 10 -20 10 -20 0
-20 -5 -18 -300z"/>
<path d="M358 644 c-9 -9 -10 -509 -2 -542 4 -14 13 -22 23 -20 23 4 29 88 7
88 -14 0 -16 19 -16 135 0 113 2 135 15 135 11 0 15 12 15 45 0 33 -4 45 -15
45 -10 0 -15 16 -17 61 -2 33 -6 57 -10 53z"/>
<path d="M183 533 c-8 -3 -13 -23 -13 -50 0 -34 3 -44 14 -40 22 9 36 -14 36
-59 0 -36 -3 -43 -22 -46 -30 -4 -41 -53 -36 -156 5 -89 16 -114 43 -92 14 12
18 11 26 -1 14 -23 11 391 -4 420 -13 26 -24 32 -44 24z m37 -312 c0 -51 -15
-75 -31 -50 -13 20 -11 73 3 87 22 22 28 13 28 -37z"/>
<path d="M433 514 c-16 -25 -18 -50 -18 -209 0 -195 7 -229 48 -223 19 3 22
10 25 52 3 44 2 48 -13 36 -22 -18 -33 -4 -37 50 -3 44 -2 45 30 48 l32 3 -1
72 c0 95 -12 165 -32 184 -14 14 -17 13 -34 -13z m40 -120 c2 -33 -1 -39 -18
-39 -17 0 -20 5 -16 40 1 22 5 44 8 48 10 16 23 -9 26 -49z"/>
<path d="M279 513 c-10 -11 -14 -46 -14 -117 0 -90 3 -105 23 -130 37 -47 25
-128 -14 -95 -13 11 -15 6 -12 -37 2 -39 7 -50 22 -52 35 -7 46 25 46 127 0
86 -2 99 -26 132 -32 46 -30 92 4 97 19 3 22 9 22 48 0 36 -3 44 -19 44 -10 0
-25 -7 -32 -17z"/>
</g>
</svg>
